<svg xmlns="http://www.w3.org/2000/svg" width="33.398" height="35.851"><g data-name="Group 516" fill="#fff"><path data-name="Path 11" d="M2.044 35.851A2.045 2.045 0 010 33.807V23.583a2.045 2.045 0 114.089 0v5.287l7.278-7.278a2.044 2.044 0 011.446-.6h8.042a8.452 8.452 0 100-16.9H2.044a2.045 2.045 0 010-4.089h18.812a12.541 12.541 0 110 25.082h-7.2l-10.17 10.17a2.046 2.046 0 01-1.442.596z"/><path data-name="Path 12" d="M21.01 14.177H2.044a2.045 2.045 0 010-4.09h18.965a2.045 2.045 0 010 4.09z"/></g></svg>